<svg xmlns="http://www.w3.org/2000/svg" width="24" height="24" viewBox="0 0 24 24">
  <g id="Group_1" data-name="Group 1" transform="translate(-377.42 -220.245)">
    <g id="Group_48" data-name="Group 48" transform="translate(377.42 220.245)">
      <path id="Path_24" data-name="Path 24" d="M389.42,244.245h0a12,12,0,0,1-12-12h0a12,12,0,0,1,12-12h0a12,12,0,0,1,12,12h0A12,12,0,0,1,389.42,244.245Z" transform="translate(-377.42 -220.245)" fill="gray"/>
    </g>
    <path id="Path_25" data-name="Path 25" d="M407.077,256.9a3.062,3.062,0,1,1,3.112-3.067v.236H405.66v.048a1.531,1.531,0,0,0,1.412,1.51,1.314,1.314,0,0,0,1.321-1.175.052.052,0,0,1,.051-.041h1.622a.053.053,0,0,1,.041.019.051.051,0,0,1,.011.044,2.83,2.83,0,0,1-3.041,2.426Zm0-4.849a1.312,1.312,0,0,0-1.324,1.094l-.01.051H408.4l-.011-.053a1.317,1.317,0,0,0-1.312-1.093ZM397,256.9a.052.052,0,0,1-.053-.052V248.8a.052.052,0,0,1,.053-.052h4.1a2.074,2.074,0,0,1,2.084,2.059,2.047,2.047,0,0,1-.876,1.667l-.065.045.073.031a2.059,2.059,0,0,1,1.288,1.892,2.485,2.485,0,0,1-2.5,2.459Zm1.653-1.675h2.229a1.03,1.03,0,0,0,.73-.3.925.925,0,0,0,.273-.685c-.031-.933-1.011-.98-1.207-.98h-2.025Zm0-3.232h2.025a.8.8,0,0,0,.621-.292.776.776,0,0,0,.162-.658.823.823,0,0,0-.822-.619h-1.986Zm6.59-1.569a.053.053,0,0,1-.053-.052V249.2a.052.052,0,0,1,.053-.052H408.9a.052.052,0,0,1,.053.052v1.17a.053.053,0,0,1-.053.052Z" transform="translate(-14.095 -20.455)" fill="#fff"/>
  </g>
</svg>
