<svg xmlns="http://www.w3.org/2000/svg" width="24" height="24" viewBox="0 0 24 24">
  <g id="dribbble-ball-icon" transform="translate(0.359 0.359)">
    <rect id="Rectangle_1669" data-name="Rectangle 1669" width="24" height="24" transform="translate(-0.359 -0.359)" fill="rgba(0,0,0,0)"/>
    <circle id="Ellipse_12" data-name="Ellipse 12" cx="11" cy="11" r="11" transform="translate(0.641 0.641)" fill="#ea4c89"/>
    <path id="Path_5411" data-name="Path 5411" d="M11.572,0A11.572,11.572,0,1,0,23.143,11.572,11.575,11.575,0,0,0,11.572,0Zm7.643,5.334a9.839,9.839,0,0,1,2.234,6.15,23.338,23.338,0,0,0-6.878-.314c-.075-.163-.138-.339-.213-.515-.2-.477-.427-.966-.653-1.431A13.228,13.228,0,0,0,19.215,5.334ZM11.572,1.707a9.862,9.862,0,0,1,6.551,2.485A11.2,11.2,0,0,1,12.94,7.756,53.36,53.36,0,0,0,9.25,1.97,10.051,10.051,0,0,1,11.572,1.707Zm-4.2.929a62.37,62.37,0,0,1,3.665,5.711A37.067,37.067,0,0,1,1.9,9.551,9.93,9.93,0,0,1,7.367,2.636ZM1.682,11.584v-.3A36.114,36.114,0,0,0,11.835,9.877c.289.552.552,1.117.8,1.682-.126.038-.264.075-.389.113a15.713,15.713,0,0,0-8.032,6.514A9.861,9.861,0,0,1,1.682,11.584Zm9.89,9.877A9.815,9.815,0,0,1,5.51,19.378,13.57,13.57,0,0,1,13.266,13.2c.025-.013.038-.013.063-.025a40.858,40.858,0,0,1,2.108,7.493A9.721,9.721,0,0,1,11.572,21.461Zm5.51-1.694a42.524,42.524,0,0,0-1.92-7.041,14.434,14.434,0,0,1,6.15.427A9.8,9.8,0,0,1,17.081,19.767Z" transform="translate(0.069 0.069)" fill="#c32361" fill-rule="evenodd"/>
  </g>
</svg>
