<svg xmlns="http://www.w3.org/2000/svg" width="24" height="24" viewBox="0 0 24 24">
  <path id="dribbble-ball-mark" d="M12,0A12,12,0,1,0,24,12,12,12,0,0,0,12,0Zm7.926,5.531a10.2,10.2,0,0,1,2.317,6.377,24.2,24.2,0,0,0-7.132-.325c-.078-.169-.143-.351-.221-.534-.208-.495-.443-1-.677-1.484A13.718,13.718,0,0,0,19.926,5.531ZM12,1.77a10.227,10.227,0,0,1,6.794,2.577,11.618,11.618,0,0,1-5.375,3.7,55.335,55.335,0,0,0-3.826-6A10.423,10.423,0,0,1,12,1.77Zm-4.36.963a64.679,64.679,0,0,1,3.8,5.922A38.439,38.439,0,0,1,1.965,9.9,10.3,10.3,0,0,1,7.64,2.733Zm-5.9,9.28V11.7a37.451,37.451,0,0,0,10.529-1.458c.3.573.573,1.158.833,1.744-.13.039-.273.078-.4.117a16.3,16.3,0,0,0-8.33,6.755A10.226,10.226,0,0,1,1.744,12.013ZM12,22.256A10.178,10.178,0,0,1,5.714,20.1c.182-.377,2.265-4.386,8.043-6.4.026-.013.039-.013.065-.026a42.37,42.37,0,0,1,2.187,7.77A10.081,10.081,0,0,1,12,22.256ZM17.714,20.5a44.1,44.1,0,0,0-1.991-7.3,14.968,14.968,0,0,1,6.377.443A10.162,10.162,0,0,1,17.714,20.5Z" fill="gray" fill-rule="evenodd"/>
</svg>
